<?xml version="1.0" standalone="no"?>
<!DOCTYPE svg PUBLIC "-//W3C//DTD SVG 20010904//EN"
 "http://www.w3.org/TR/2001/REC-SVG-20010904/DTD/svg10.dtd">
<svg version="1.0" xmlns="http://www.w3.org/2000/svg"
 width="2000.000000pt" height="2000.000000pt" viewBox="0 0 2000.000000 2000.000000"
 preserveAspectRatio="xMidYMid meet">

<g transform="translate(0.000000,2000.000000) scale(0.100000,-0.100000)"
fill="#000000" stroke="none">
<path d="M14480 14134 c146 -50 277 -162 340 -293 40 -81 70 -198 70 -270 0
-49 -29 -396 -125 -1476 -14 -154 -47 -541 -75 -860 -28 -319 -75 -859 -105
-1200 -30 -341 -84 -957 -120 -1370 -36 -412 -104 -1186 -150 -1720 -47 -533
-96 -1096 -110 -1250 -13 -154 -47 -541 -75 -860 -53 -606 -63 -671 -116 -778
-96 -190 -296 -355 -489 -401 l-60 -14 115 -1 c209 -1 361 53 517 185 101 87
194 237 228 369 17 71 -4 -166 285 3140 268 3065 295 3373 435 4973 58 661
105 1230 105 1265 -1 212 -133 427 -320 520 -106 52 -174 67 -310 67 l-115 -1
75 -25z"/>
<path d="M10815 14068 c-97 -36 -123 -86 -138 -262 -9 -119 -9 -134 8 -169 9
-20 32 -47 49 -60 29 -20 42 -22 188 -22 l156 0 39 31 c61 50 75 83 89 216 16
160 6 200 -58 245 -40 27 -46 28 -172 30 -77 1 -143 -2 -161 -9z m165 -173
c53 55 65 59 85 28 l18 -26 -46 -43 -45 -43 39 -44 38 -44 -25 -24 -25 -23
-41 41 -41 41 -49 -41 -49 -41 -22 22 -21 22 46 47 47 48 -40 43 -40 42 28 25
28 25 40 -46 40 -45 35 36z"/>
<path d="M6261 13861 c-10 -10 -23 -26 -28 -36 -9 -16 -12 -16 -40 -2 -27 14
-32 14 -51 1 -12 -8 -24 -30 -28 -49 -3 -19 -8 -35 -11 -35 -2 0 -17 10 -33
22 -39 29 -70 15 -99 -45 l-22 -45 -24 24 c-41 41 -73 29 -109 -41 -14 -27
-20 -30 -67 -30 -66 0 -77 -15 -63 -84 l10 -49 -29 -9 c-47 -13 -56 -37 -31
-83 l22 -39 -37 -8 c-49 -12 -53 -42 -11 -79 l30 -28 -25 -26 c-34 -35 -32
-66 5 -85 16 -8 36 -15 45 -15 19 0 19 -4 -1 -41 -8 -17 -14 -45 -12 -62 3
-32 3 -32 61 -32 53 0 58 -2 52 -20 -16 -58 -16 -72 1 -89 14 -14 27 -17 65
-12 l47 6 7 -46 c7 -47 33 -84 60 -84 9 0 32 7 52 15 20 8 37 14 38 13 27 -51
33 -185 12 -268 l-12 -45 -67 -11 c-37 -6 -74 -16 -82 -23 -17 -14 -21 -48 -8
-67 8 -14 673 -14 665 -1 -3 5 -5 30 -5 57 l1 48 -53 6 c-53 7 -54 8 -59 44
-5 34 5 129 14 135 2 1 25 13 52 26 26 13 65 44 88 68 58 64 82 122 87 220 4
73 7 83 26 89 47 14 48 25 6 70 -47 52 -64 88 -56 127 4 19 0 33 -12 45 -10
10 -27 37 -39 60 -16 32 -17 42 -7 42 8 0 14 7 14 15 0 8 -7 15 -17 15 -15 0
-15 1 0 18 21 23 22 50 1 73 -14 15 -13 19 10 42 14 15 26 33 26 41 0 19 -27
46 -46 46 -17 0 -17 4 -2 46 10 29 9 36 -6 53 -10 11 -28 21 -40 23 -16 2 -22
11 -24 35 -5 48 -24 58 -80 45 -44 -10 -49 -9 -73 14 -30 29 -62 31 -88 5z"/>
<path d="M12020 13870 c-8 -5 -23 -11 -32 -14 -12 -3 -15 -11 -11 -22 4 -11 2
-15 -4 -11 -19 12 -38 -27 -34 -71 2 -21 63 -72 86 -71 32 1 80 34 77 53 -2 9
2 24 8 34 9 14 10 13 5 -8 -5 -21 -4 -22 5 -8 6 11 8 33 4 53 -5 28 -14 40
-45 55 -43 22 -39 22 -59 10z m67 -26 c-3 -3 -12 -4 -19 -1 -8 3 -5 6 6 6 11
1 17 -2 13 -5z m-117 -58 c0 -3 -4 -8 -10 -11 -5 -3 -10 -1 -10 4 0 6 5 11 10
11 6 0 10 -2 10 -4z"/>
<path d="M5468 12270 c-133 -40 -227 -222 -287 -555 -36 -200 -36 -189 5 -209
33 -15 36 -20 31 -49 -3 -18 -17 -99 -32 -182 -19 -111 -24 -166 -19 -209 12
-111 55 -204 128 -279 34 -35 298 -217 315 -217 12 0 21 91 21 216 0 104 -1
112 -25 134 -41 38 -74 93 -77 126 -1 18 13 84 32 148 31 102 37 116 54 112
18 -5 19 1 13 147 -10 231 -41 509 -83 740 -17 93 -19 94 -76 77z"/>
<path d="M6853 12248 c-55 -61 -77 -156 -76 -338 1 -272 78 -504 219 -658 l42
-47 45 43 44 44 138 -141 c104 -107 152 -148 197 -170 119 -60 244 -64 354
-12 57 27 234 161 283 215 l24 26 669 0 668 0 -64 63 c-74 74 -126 159 -157
254 -19 57 -23 98 -27 256 l-4 187 -912 0 c-513 0 -926 -4 -946 -10 -19 -5
-44 -11 -55 -14 -16 -5 -30 7 -70 60 -73 98 -174 204 -224 236 -57 36 -118 38
-148 6z"/>
<path d="M9982 11800 c-97 -46 -200 -116 -273 -187 l-67 -64 -53 30 c-45 25
-182 71 -211 71 -5 0 -8 -15 -8 -32 0 -31 5 -36 75 -71 54 -28 92 -58 138
-108 l64 -68 46 72 c81 128 205 249 328 321 37 21 46 31 42 46 -7 25 -6 25
-81 -10z"/>
<path d="M11765 11742 c-80 -39 -127 -116 -144 -238 -28 -193 41 -304 187
-304 77 0 121 19 166 71 53 63 71 125 71 249 0 119 -18 170 -76 211 -44 31
-149 37 -204 11z"/>
<path d="M11594 11045 c-201 -36 -352 -132 -411 -261 -24 -53 -31 -102 -56
-376 l-6 -58 613 0 613 0 13 158 c15 178 10 273 -14 320 -39 76 -128 149 -229
186 -118 44 -370 59 -523 31z"/>
<path d="M5606 10102 c-7 -12 -92 -446 -130 -672 -65 -375 -104 -667 -196
-1460 -92 -791 -125 -995 -271 -1680 -93 -434 -316 -1358 -443 -1833 -23 -88
-30 -130 -22 -132 22 -8 450 -84 453 -81 2 2 33 86 68 187 426 1222 819 2443
935 2909 32 127 118 550 141 695 9 55 15 73 20 60 19 -49 41 -1230 57 -3099
l7 -779 95 2 c188 3 345 14 351 23 4 6 9 31 12 57 3 25 36 262 72 526 166
1209 270 2113 296 2576 21 370 -11 1302 -81 2361 -11 164 -20 309 -20 323 l0
25 -669 0 c-369 0 -672 -3 -675 -8z"/>
<path d="M12986 9368 c-35 -49 -11 -112 39 -106 25 2 32 10 42 41 18 53 3 87
-36 87 -20 0 -35 -8 -45 -22z"/>
<path d="M10800 9293 c-36 -13 -60 -47 -60 -83 0 -72 -11 -70 428 -70 389 0
391 0 411 22 12 12 23 30 27 41 9 27 -14 73 -42 86 -26 11 -733 15 -764 4z"/>
<path d="M11820 9293 c-36 -13 -60 -47 -60 -83 0 -69 6 -70 278 -70 228 0 243
1 262 20 43 43 35 111 -16 130 -26 10 -437 13 -464 3z"/>
<path d="M12925 9206 c-45 -20 -63 -46 -71 -104 l-7 -52 151 0 150 0 4 43 c6
59 -8 93 -47 111 -40 19 -138 20 -180 2z"/>
<path d="M12918 8624 c-16 -8 -30 -26 -34 -42 -12 -55 -17 -67 -32 -78 -12 -9
-16 -31 -16 -90 l-1 -79 96 -3 c73 -2 99 1 108 12 6 7 14 44 18 81 5 53 3 70
-8 79 -9 7 -15 28 -15 55 1 70 -53 100 -116 65z m84 -21 c11 -10 18 -30 18
-55 l0 -38 -65 0 c-65 0 -65 0 -65 29 0 64 69 103 112 64z"/>
<path d="M10758 8564 c-4 -3 -2 -20 3 -37 10 -36 -7 -57 -48 -57 -14 0 -23 -6
-23 -15 0 -9 9 -15 23 -15 41 0 52 -14 38 -49 -20 -48 -8 -59 24 -23 l29 32
31 -30 c36 -35 47 -31 34 13 -13 45 -13 44 28 54 49 11 52 29 7 37 -31 6 -35
10 -29 29 15 49 17 67 6 67 -6 0 -18 -11 -27 -25 -20 -31 -31 -31 -64 0 -15
14 -29 23 -32 19z"/>
<path d="M11136 8562 c-3 -5 -1 -24 4 -41 8 -29 6 -33 -16 -41 -14 -6 -32 -10
-40 -10 -8 0 -14 -7 -14 -15 0 -9 9 -15 23 -15 38 0 49 -13 37 -44 -20 -53
-12 -62 23 -28 l33 32 24 -25 c33 -35 44 -31 36 14 -6 38 -5 39 31 48 48 11
52 29 8 37 -39 8 -40 9 -24 55 16 44 4 50 -31 16 l-30 -29 -29 28 c-16 15 -31
23 -35 18z"/>
<path d="M11517 8563 c-4 -5 -2 -25 3 -42 8 -29 6 -33 -16 -41 -14 -6 -32 -10
-40 -10 -8 0 -14 -7 -14 -15 0 -9 9 -15 23 -15 41 0 49 -13 33 -52 -20 -48 -9
-55 29 -18 l32 31 26 -30 c29 -35 41 -27 31 23 -6 33 -4 36 22 41 48 11 56 14
50 24 -3 4 -19 11 -36 14 -32 7 -38 24 -19 59 19 35 -5 41 -36 8 l-29 -30 -26
32 c-15 18 -29 27 -33 21z"/>
<path d="M11897 8564 c-4 -4 -4 -24 -1 -44 6 -37 5 -38 -31 -46 -45 -11 -47
-27 -5 -35 42 -9 42 -11 26 -51 -20 -48 -9 -55 30 -17 l32 31 22 -31 c27 -39
42 -31 34 19 -6 37 -5 39 22 45 48 11 56 14 50 24 -3 5 -22 12 -41 15 -40 8
-40 7 -19 48 23 44 4 54 -31 18 l-30 -31 -25 31 c-14 17 -29 28 -33 24z"/>
<path d="M12275 8526 l7 -44 -39 -9 c-48 -11 -49 -25 -1 -36 l37 -9 -14 -35
c-21 -50 -8 -60 30 -23 l33 32 22 -31 c27 -39 43 -31 34 16 -7 39 4 53 44 53
36 0 26 27 -13 34 -19 4 -35 8 -35 10 0 2 7 19 15 39 19 47 8 54 -31 16 l-32
-31 -21 31 c-31 44 -43 39 -36 -13z"/>
<path d="M10814 7921 c-170 -77 -222 -291 -101 -412 67 -68 21 -64 767 -64
l675 0 42 23 c101 53 152 136 153 245 0 76 -19 124 -67 169 -62 60 -41 58
-765 58 -627 0 -665 -1 -704 -19z"/>
<path d="M11375 7006 c-168 -33 -296 -108 -414 -241 -122 -137 -166 -247 -187
-470 -23 -230 -16 -211 -78 -229 -88 -26 -183 -126 -200 -211 -10 -49 -86
-941 -86 -1006 0 -102 49 -179 140 -218 50 -21 52 -22 757 -19 l708 3 51 27
c28 15 66 44 84 64 55 64 68 107 85 284 l15 162 39 47 c108 128 289 278 445
368 75 43 85 52 88 81 5 40 5 40 -147 -32 -124 -59 -250 -135 -342 -208 -75
-58 -70 -82 -43 217 22 229 20 266 -10 325 -29 55 -110 120 -152 120 -37 1
-38 11 -23 183 20 230 9 312 -64 452 -68 131 -208 244 -361 289 -77 23 -220
29 -305 12z m274 -178 c148 -55 249 -167 291 -321 13 -48 10 -245 -6 -374 l-7
-53 -503 0 -504 0 0 38 c0 79 22 270 36 322 60 209 238 372 447 410 71 12 179
3 246 -22z m-181 -1108 c52 -32 74 -75 69 -142 -3 -47 -9 -65 -39 -102 -34
-44 -36 -51 -42 -148 -14 -196 -22 -238 -52 -269 -48 -50 -115 -47 -150 6 -16
24 -16 40 -4 205 12 162 12 180 -3 195 -24 23 -41 88 -33 128 21 112 162 183
254 127z"/>
<path d="M8570 6825 c0 -8 6 -15 13 -15 9 0 9 -2 0 -8 -13 -8 -31 -187 -27
-271 2 -36 -1 -50 -7 -40 -6 10 -9 7 -9 -13 l0 -28 94 0 94 0 7 91 c4 49 5 93
1 96 -3 3 -2 11 3 17 4 6 11 50 15 99 l6 87 -95 0 c-78 0 -95 -3 -95 -15z"/>
<path d="M4525 4088 c-46 -167 -66 -218 -84 -218 -12 0 -31 -31 -69 -114 -29
-62 -52 -118 -52 -124 0 -21 33 -33 161 -57 74 -13 211 -43 304 -65 94 -22
186 -40 206 -40 40 0 74 23 84 57 7 24 8 23 -120 94 -52 28 -105 69 -152 116
l-71 72 44 138 c24 76 44 141 44 144 0 6 -242 59 -266 59 -6 0 -19 -28 -29
-62z"/>
<path d="M6286 4018 c-3 -18 -7 -84 -10 -146 -3 -77 -9 -116 -19 -126 -15 -16
-61 -222 -55 -251 3 -19 16 -20 444 -22 426 -3 442 -2 467 17 27 21 44 67 30
81 -5 5 -79 22 -164 39 -178 34 -244 55 -348 108 l-74 37 7 148 6 147 -140 0
-139 0 -5 -32z"/>
</g>
</svg>
