<?xml version="1.0" standalone="no"?>
<!DOCTYPE svg PUBLIC "-//W3C//DTD SVG 20010904//EN"
 "http://www.w3.org/TR/2001/REC-SVG-20010904/DTD/svg10.dtd">
<svg version="1.0" xmlns="http://www.w3.org/2000/svg"
 width="512.000000pt" height="512.000000pt" viewBox="0 0 512.000000 512.000000"
 preserveAspectRatio="xMidYMid meet">

<g transform="translate(0.000000,512.000000) scale(0.100000,-0.100000)"
fill="#000000" stroke="none">
<path d="M2438 4437 c-137 -166 -333 -420 -457 -592 -481 -662 -769 -1178
-877 -1571 -26 -91 -28 -114 -28 -279 -1 -137 3 -200 17 -265 114 -535 486
-957 991 -1125 162 -54 235 -66 427 -72 133 -4 199 -2 275 10 267 43 498 145
712 317 269 216 445 505 524 862 19 86 23 132 22 273 0 151 -3 181 -26 265
-124 455 -502 1101 -1099 1876 -144 186 -352 443 -359 444 -3 0 -58 -64 -122
-143z"/>
</g>
</svg>
